<svg width="126" height="40" viewBox="0 0 126 40" fill="none" xmlns="http://www.w3.org/2000/svg">
<g clip-path="url(#clip0_42765_9603)">
<path d="M8.81109 5.87891H4.47278V17.6076H8.81109V5.87891Z" fill="#FFB738"/>
<path d="M35.5806 22.3926H31.2422V34.1212H35.5806V22.3926Z" fill="#268C6E"/>
<path d="M11.916 11.9842C14.0823 9.84302 16.9632 8.66315 20.0255 8.66315C23.0878 8.66315 25.9687 9.84302 28.135 11.9842C29.7201 13.5508 30.7834 15.493 31.2399 17.6089H35.5782C35.0735 14.3635 33.548 11.3676 31.152 9.00226C28.1832 6.06238 24.2305 4.44531 20.0255 4.44531C15.8205 4.44531 11.8706 6.06238 8.89899 9.00226C6.503 11.3676 4.9775 14.3635 4.47278 17.6089H8.81109C9.26761 15.493 10.3309 13.5508 11.916 11.9842Z" fill="#FFB738"/>
<path d="M28.1379 28.0173C25.9715 30.1584 23.0907 31.3383 20.0283 31.3383C16.966 31.3383 14.0851 30.1584 11.9188 28.0173C10.3338 26.4507 9.27044 24.5085 8.81393 22.3926H4.47278C4.9775 25.6379 6.503 28.6339 8.89899 30.9992C11.8706 33.9363 15.8233 35.5562 20.0283 35.5562C24.2334 35.5562 28.1832 33.9391 31.1577 30.9992C33.5508 28.6339 35.0792 25.6379 35.5839 22.3926H31.2456C30.7891 24.5085 29.7257 26.4507 28.1407 28.0173H28.1379Z" fill="#268C6E"/>
</g>
<g clip-path="url(#clip1_42765_9603)">
<path d="M93.7054 17.7949H90.9321V20.0102H93.7054V17.7949Z" fill="white"/>
<path d="M93.7054 21.3164H90.9321V32.1273H93.7054V21.3164Z" fill="white"/>
<path d="M51.9175 28.248H51.8733L48.9391 21.3184H45.7998L50.4062 31.2752L48.753 34.8728H51.561C51.785 34.3748 52.0216 33.8466 52.274 33.2822C52.8546 31.9814 56.4261 24.0256 57.6503 21.3214H54.7508L51.9207 28.251L51.9175 28.248Z" fill="white"/>
<path d="M76.3759 28.6349C76.3286 28.9398 76.256 29.1963 76.1519 29.4076C76.0478 29.6188 75.9121 29.7818 75.7386 29.8965C75.565 30.0112 75.3536 30.0655 75.1012 30.0655C74.628 30.0655 74.2998 29.8935 74.1168 29.5434C73.9339 29.1963 73.8424 28.6802 73.8424 27.9921V23.5071H77.742V21.3129H73.8424V18.8984H71.9556C71.9398 19.1399 71.9209 19.3693 71.8925 19.5745C71.8326 20.0453 71.7316 20.4347 71.5959 20.7365C71.4571 21.0383 71.2836 21.2616 71.069 21.4005C70.8545 21.5393 70.5958 21.6087 70.2897 21.6087H69.807V23.5041H71.069V27.8894C71.069 28.4659 71.1227 29.0243 71.23 29.5615C71.3372 30.0987 71.5265 30.5726 71.8042 30.9861C72.0787 31.3995 72.4604 31.7285 72.9432 31.979C73.8676 32.4529 75.1864 32.471 76.1708 32.1692C76.9375 31.9337 77.578 31.4056 77.9471 30.7235C78.1175 30.4066 78.2532 30.0716 78.3478 29.7215C78.4425 29.3714 78.5087 29.0122 78.5434 28.647C78.5781 28.2818 78.5939 27.9347 78.5939 27.6057H76.4421C76.4421 27.986 76.4201 28.3271 76.3727 28.6319L76.3759 28.6349Z" fill="white"/>
<path d="M85.9424 21.3932C85.9424 21.3932 85.9109 21.4053 85.8983 21.4114C85.5922 21.5442 85.3177 21.7102 85.0748 21.9063C84.3302 22.5341 83.9673 23.4275 83.7907 24.1186H83.6234V21.3118H80.9984V32.1227H83.7844V27.2877C83.7844 26.7384 83.8632 26.2494 84.021 25.8178C84.1787 25.3862 84.4217 25.018 84.753 24.7162C85.0842 24.4144 85.5102 24.182 86.0245 24.019C86.5387 23.8591 87.1571 23.7776 87.8765 23.7776V21.0371C87.2644 21.0371 86.7249 21.1156 86.2548 21.2725C86.1475 21.3087 86.0465 21.348 85.9456 21.3902L85.9424 21.3932Z" fill="white"/>
<path d="M48.5826 10.3827C48.5826 9.97224 48.6425 9.58592 48.7656 9.22072C48.8886 8.85553 49.059 8.53863 49.2767 8.26699C49.4944 7.99536 49.7531 7.78409 50.0497 7.62715C50.9331 7.16236 52.1667 7.31326 52.9366 7.91387C53.6307 8.45412 53.7758 9.3837 53.7758 10.1865V16.1745H56.5492V9.73682C56.5492 9.09396 56.4829 8.48732 56.3472 7.92293C56.2116 7.35854 56.0002 6.86356 55.7067 6.44404C54.3879 4.55771 51.0593 4.60298 49.5638 6.23579C49.2451 6.58288 48.8381 7.10501 48.6078 7.62715H48.4248V5.36355H45.7998V16.1715H48.5857V10.3827H48.5826Z" fill="white"/>
<path d="M87.8535 6.44014C86.5347 4.5538 83.2061 4.59908 81.7105 6.23189C81.4045 6.56388 81.0196 7.05885 80.7861 7.55685C80.6536 7.14034 80.4737 6.7661 80.2466 6.44014C78.9278 4.5538 75.5992 4.59908 74.1037 6.23189C73.785 6.57897 73.378 7.10111 73.1477 7.62324H72.9615V5.35965H70.3365V16.1706H73.1224V10.3818C73.1224 9.97135 73.1824 9.58503 73.3054 9.21984C73.4285 8.85464 73.5988 8.53774 73.8165 8.26611C74.0342 7.99447 74.293 7.78321 74.5895 7.62626C75.4698 7.16147 76.7066 7.31238 77.4764 7.91299C78.1705 8.45323 78.3157 9.38282 78.3157 10.1856V16.1736H81.089V9.73594C81.089 9.62125 81.089 9.50958 81.0827 9.40092C81.0669 8.99951 81.1647 8.59206 81.4203 8.27214C81.4203 8.27214 81.4203 8.26912 81.4234 8.26611C81.6411 7.99447 81.8998 7.78321 82.1964 7.62626C83.0767 7.16147 84.3135 7.31238 85.0833 7.91299C85.7774 8.45323 85.9226 9.38282 85.9226 10.1856V16.1736H88.6959V9.73594C88.6959 9.09307 88.6296 8.48643 88.494 7.92204C88.3583 7.35765 88.1469 6.86268 87.8503 6.44316L87.8535 6.44014Z" fill="white"/>
<path d="M108.454 6.44014C107.135 4.5538 103.806 4.59908 102.311 6.23189C102.005 6.56388 101.62 7.05885 101.386 7.55685C101.254 7.14034 101.074 6.7661 100.847 6.44014C99.528 4.5538 96.1994 4.59908 94.7039 6.23189C94.3852 6.57897 93.9782 7.10111 93.7479 7.62324H93.5617V5.35965H90.9367V16.1706H93.7226V10.3818C93.7226 9.97135 93.7826 9.58503 93.9056 9.21984C94.0287 8.85464 94.1991 8.53774 94.4168 8.26611C94.6345 7.99447 94.8932 7.78321 95.1898 7.62626C96.0732 7.16147 97.3068 7.31238 98.0766 7.91299C98.7708 8.45323 98.9159 9.38282 98.9159 10.1856V16.1736H101.689V9.73594C101.689 9.62125 101.689 9.50958 101.683 9.40092C101.667 8.99951 101.765 8.59206 102.02 8.27214C102.02 8.27214 102.021 8.26912 102.024 8.26611C102.241 7.99447 102.5 7.78321 102.797 7.62626C103.68 7.16147 104.914 7.31238 105.684 7.91299C106.378 8.45323 106.523 9.38282 106.523 10.1856V16.1736H109.296V9.73594C109.296 9.09307 109.23 8.48643 109.094 7.92204C108.959 7.35765 108.747 6.86268 108.454 6.44316V6.44014Z" fill="white"/>
<path d="M67.3746 6.23585C66.9865 5.85858 66.5101 5.57487 65.9454 5.3787C65.3838 5.18554 64.7464 5.08594 64.0334 5.08594C63.3203 5.08594 62.2539 5.18855 61.6892 5.39379C61.1244 5.59902 60.6448 5.87367 60.2599 6.21774C59.8718 6.5618 59.5847 6.9602 59.386 7.41594C59.1903 7.86866 59.0925 8.35156 59.0925 8.85558H61.6071C61.6071 8.65035 61.6513 8.44814 61.7397 8.25196C61.828 8.05578 61.9542 7.87771 62.1183 7.71775C62.2823 7.55779 62.4811 7.43404 62.7177 7.33445C62.9512 7.23485 63.5948 7.18656 63.8851 7.18656C64.1754 7.18656 64.4404 7.22277 64.677 7.29521C64.9137 7.36765 65.1156 7.49441 65.2797 7.67549C65.4437 7.85658 65.5731 8.09502 65.6646 8.39381C65.7561 8.69562 65.8034 9.07289 65.8034 9.52561V9.77913C64.8537 9.77913 63.5759 9.82742 62.724 9.92702C61.8722 10.0266 61.1276 10.2107 60.4839 10.4884C59.8403 10.763 59.3323 11.1463 58.9569 11.6353C58.5814 12.1272 58.3953 12.7671 58.3953 13.5578C58.3953 14.0256 58.4805 14.4421 58.654 14.8043C58.8244 15.1665 59.0641 15.4713 59.367 15.7158C59.6699 15.9603 60.0296 16.1474 60.4461 16.2742C60.8657 16.4039 61.3137 16.4673 61.7964 16.4673C62.7209 16.4673 63.7242 16.3919 64.5067 15.8727C64.8506 15.6434 65.1345 15.3415 65.3585 15.0035C65.4059 14.9311 65.7845 14.1041 65.7939 14.1041H65.9548V16.1927H68.583V9.57994C68.583 8.84653 68.4789 8.20065 68.2738 7.6423C68.0656 7.08092 67.769 6.61311 67.3778 6.23585H67.3746ZM65.6299 12.5619C65.5131 12.9391 65.3491 13.2681 65.1282 13.5458C64.9105 13.8234 64.5382 14.0407 64.2259 14.2007C63.9135 14.3607 63.2793 14.4452 62.8723 14.4452C62.358 14.4452 61.9637 14.3214 61.6892 14.077C61.4147 13.8325 61.2759 13.5156 61.2759 13.1262C61.2759 12.7369 61.3831 12.4502 61.604 12.2148C61.8217 11.9794 62.1183 11.7983 62.5 11.6715C62.8786 11.5447 63.699 11.4572 64.2006 11.4119C64.7023 11.3667 65.2355 11.3455 65.8034 11.3455C65.8034 11.7771 65.7466 12.1816 65.633 12.5588L65.6299 12.5619Z" fill="white"/>
<path d="M67.3746 22.1792C66.9865 21.8019 66.5101 21.5182 65.9454 21.3221C65.3838 21.1289 64.7464 21.0293 64.0334 21.0293C63.3203 21.0293 62.2539 21.1319 61.6892 21.3371C61.1244 21.5424 60.6448 21.817 60.2599 22.1611C59.875 22.5052 59.5847 22.9036 59.386 23.3593C59.1903 23.812 59.0925 24.2949 59.0925 24.7989H61.6071C61.6071 24.5937 61.6513 24.3915 61.7397 24.1953C61.828 23.9991 61.9542 23.8211 62.1183 23.6611C62.2823 23.5011 62.4811 23.3774 62.7177 23.2778C62.9512 23.1782 63.5948 23.1299 63.8851 23.1299C64.1754 23.1299 64.4404 23.1661 64.677 23.2386C64.9137 23.311 65.1156 23.4378 65.2797 23.6189C65.4437 23.7999 65.5731 24.0384 65.6646 24.3372C65.7561 24.639 65.8034 25.0162 65.8034 25.469V25.7225C64.8537 25.7225 63.5759 25.7708 62.724 25.8704C61.8722 25.97 61.1276 26.1541 60.4839 26.4318C59.8403 26.7064 59.3323 27.0897 58.9569 27.5786C58.5814 28.0706 58.3953 28.7104 58.3953 29.5012C58.3953 29.969 58.4805 30.3855 58.654 30.7477C58.8244 31.1099 59.0641 31.4147 59.367 31.6592C59.6699 31.9036 60.0296 32.0907 60.4461 32.2175C60.8657 32.3473 61.3137 32.4107 61.7964 32.4107C62.7272 32.4107 63.7936 32.3171 64.5666 31.7738C65.1661 31.3513 65.5668 30.7175 65.7939 30.0475H65.9548V32.136H68.583V25.5233C68.583 24.7899 68.4789 24.144 68.2738 23.5857C68.0656 23.0243 67.769 22.5565 67.3778 22.1792H67.3746ZM65.6299 28.5052C65.5131 28.8825 65.3491 29.2115 65.1282 29.4891C64.9105 29.7668 64.5382 29.9841 64.2259 30.1441C63.9135 30.304 63.2793 30.3885 62.8723 30.3885C62.358 30.3885 61.9637 30.2648 61.6892 30.0203C61.4147 29.7758 61.2759 29.4589 61.2759 29.0696C61.2759 28.6803 61.3831 28.3905 61.604 28.1581C61.8217 27.9227 62.1183 27.7416 62.5 27.6149C62.8786 27.4881 63.699 27.4006 64.2006 27.3553C64.7023 27.31 65.2355 27.2889 65.8034 27.2889C65.8034 27.7205 65.7466 28.1249 65.633 28.5022L65.6299 28.5052Z" fill="white"/>
<path d="M120.767 7.6423C120.559 7.08092 120.259 6.61311 119.871 6.23585C119.483 5.85858 119.007 5.57487 118.442 5.3787C117.88 5.18554 117.243 5.08594 116.53 5.08594C115.817 5.08594 114.75 5.18855 114.186 5.39379C113.621 5.59902 113.141 5.87367 112.756 6.21774C112.368 6.5618 112.081 6.9602 111.882 7.41594C111.687 7.86866 111.589 8.35156 111.589 8.85558H114.104C114.104 8.65035 114.148 8.44814 114.236 8.25196C114.324 8.05578 114.451 7.87771 114.615 7.71775C114.779 7.56081 114.981 7.43404 115.214 7.33445C115.448 7.23485 116.091 7.18656 116.382 7.18656C116.672 7.18656 116.937 7.22277 117.173 7.29521C117.41 7.36765 117.612 7.49441 117.776 7.67549C117.94 7.85658 118.07 8.09502 118.161 8.39381C118.253 8.69562 118.3 9.07289 118.3 9.52561V9.77913C117.35 9.77913 116.072 9.82742 115.22 9.92702C114.372 10.0266 113.624 10.2107 112.98 10.4884C112.337 10.763 111.829 11.1463 111.453 11.6353C111.078 12.1272 110.892 12.7671 110.892 13.5578C110.892 14.0256 110.977 14.4421 111.15 14.8043C111.321 15.1665 111.561 15.4713 111.863 15.7158C112.166 15.9603 112.526 16.1474 112.943 16.2742C113.362 16.4039 113.81 16.4673 114.293 16.4673C114.965 16.4673 115.747 16.3858 116.363 16.1896C117.59 15.7581 118.111 14.6776 118.322 14.0166H118.454V16.1927H121.083V9.57994C121.083 8.84653 120.979 8.20065 120.773 7.6423H120.767ZM118.126 12.5619C118.01 12.9391 117.846 13.2681 117.625 13.5458C117.407 13.8234 117.035 14.0407 116.722 14.2007C116.41 14.3607 115.776 14.4452 115.369 14.4452C114.855 14.4452 114.46 14.3214 114.186 14.077C113.911 13.8325 113.772 13.5156 113.772 13.1262C113.772 12.7369 113.88 12.4502 114.1 12.2148C114.318 11.9794 114.615 11.7983 114.996 11.6715C115.375 11.5447 116.195 11.4572 116.697 11.4119C117.199 11.3667 117.732 11.3455 118.3 11.3455C118.3 11.7771 118.243 12.1816 118.129 12.5588L118.126 12.5619Z" fill="white"/>
</g>
<defs>
<clipPath id="clip0_42765_9603">
<rect width="31.1111" height="31.11" fill="white" transform="translate(4.47278 4.44531)"/>
</clipPath>
<clipPath id="clip1_42765_9603">
<rect width="75.283" height="29.8555" fill="white" transform="translate(45.7998 5.01562)"/>
</clipPath>
</defs>
</svg>
